OpenSim_Sub06_EMGStiffKnee_GRF.mot
version=1
nRows=52
nColumns=19
inDegrees=no
endheader
time	lFx	lFy	lFz	lCOPx	lCOPy	lCOPz	rFx	rFy	rFz	rCOPx	rCOPy	rCOPz	lMx	lMy	lMz	rMx	rMy	rMz
40.74000000	34.75157494	638.80331965	88.02318479	0.87019175	0	-0.70376741	0.34011275	-1.80451929	-0.04808665	-0.02525445	0	0.00787832	0	-7.75319533	0	0	0.02299609	-0.00000000
40.75000000	38.06447556	627.90830192	87.64692830	0.86481757	0	-0.70407174	0.60234377	-5.34778346	0.02674444	-0.03888541	0	0.01248998	0	-7.74410101	0	0	0.02683394	0.00000000
40.76000000	41.04174449	617.02858759	87.27067652	0.85976779	0	-0.70428489	0.64199915	-8.00404818	0.50778459	-0.02318327	0	0.00833149	0	-7.74546013	0	0	-0.00511712	-0.00000000
40.77000000	43.70449266	606.48819913	86.86386932	0.85469766	0	-0.70443026	-0.27345068	-2.85936706	1.70893064	0.07653443	0	-0.02187564	0	-7.75805952	0	0	-0.11740367	0.00000000
40.78000000	46.27356601	596.15451188	86.37882988	0.84942839	0	-0.70449985	-3.33738884	23.21556274	3.50613664	0.32201651	0	-0.09850660	0	-7.79077885	0	0	-0.33971820	0
40.79000000	48.88102758	585.46218345	85.76901717	0.84392341	0	-0.70446600	-11.74723598	87.77982947	4.66189956	0.69505091	0	-0.21844000	0	-7.82651372	0	0	-0.59313226	0
40.80000000	51.47974941	573.06284580	84.89998176	0.83826436	0	-0.70434263	-30.71612395	199.72604566	4.54162344	1.00538905	0	-0.32360548	0	-7.82966408	0	0	-0.34899767	0
40.81000000	53.92481491	556.76694885	83.34202384	0.83250894	0	-0.70416594	-56.51305086	346.94857204	-0.63234958	1.15463822	0	-0.37806377	0	-7.71462251	0	0	0.69202371	-0.00000000
40.82000000	56.02928884	533.91789150	80.42239591	0.82673203	0	-0.70391840	-79.63570598	491.87715249	-12.83904606	1.19050422	0	-0.39376673	0	-7.36394822	0	0	1.20908926	0
40.83000000	57.36549386	502.44242858	75.45180317	0.82097531	0	-0.70350004	-93.02051588	592.00007412	-25.32662941	1.17808040	0	-0.39137308	0	-6.74885931	0	0	1.14934333	0
40.84000000	57.18476073	462.14413305	68.00870198	0.81548127	0	-0.70277710	-95.27079667	630.69331350	-35.63609661	1.15619768	0	-0.38425408	0	-5.90332368	0	0	1.28272389	0
40.85000000	54.78596723	414.88663394	58.40739726	0.81077675	0	-0.70176763	-90.36571218	620.78271518	-46.90003007	1.13945901	0	-0.37766521	0	-4.86548172	0	0	1.20847662	0.00000000
40.86000000	50.09012376	363.49372442	47.76325019	0.80735837	0	-0.70090636	-83.13284571	588.36643554	-60.33453818	1.12989835	0	-0.37232214	0	-3.68552792	0	0	0.90846201	0.00000000
40.87000000	43.67976449	310.55256363	37.09817765	0.80627579	0	-0.70152561	-76.43713170	555.36897044	-75.07845135	1.12559863	0	-0.36775898	0	-2.35506287	0	0	0.36386228	0.00000000
40.88000000	36.27392459	258.23120696	27.22290090	0.80893200	0	-0.70531921	-71.39855314	533.46124921	-88.25392265	1.12430374	0	-0.36366186	0	-0.90246283	0	0	-0.28357605	-0.00000000
40.89000000	28.40705341	208.10150625	18.72810534	0.81591769	0	-0.71286724	-68.16600511	526.01936858	-96.64654181	1.12416978	0	-0.36010459	0	0.54032749	0	0	-0.77823768	0
40.90000000	20.14188082	161.14432075	12.38972643	0.82138659	0	-0.71912841	-66.34619486	532.02213992	-100.27854865	1.12381043	0	-0.35745330	0	1.62263630	0	0	-1.16991551	0
40.91000000	11.44469729	118.44774187	8.54876754	0.80539028	0	-0.70684080	-65.74135030	549.52199265	-100.05351314	1.12225580	0	-0.35574354	0	2.08725654	0	0	-1.38145901	0
40.92000000	2.80486950	81.35143602	6.50132896	0.73014591	0	-0.64286013	-65.67337737	575.86771968	-97.37551922	1.11912672	0	-0.35476247	0	2.02657865	0	0	-1.36767836	-0.00000000
40.93000000	-4.92774880	51.30761517	5.24179783	0.55537091	0	-0.49146492	-65.30375050	606.97031139	-94.05776677	1.11483153	0	-0.35421669	0	1.59852190	0	0	-1.21223489	0
40.94000000	-10.57716646	29.13086696	4.20019580	0.30170795	0	-0.26907164	-64.40422980	637.88382356	-91.20793732	1.10982254	0	-0.35380132	0	0.89789574	0	0	-1.08325166	0
40.95000000	-12.94241813	14.03003978	2.88434507	0.09818010	0	-0.08864170	-62.93449412	664.22562379	-89.08029560	1.10449762	0	-0.35331748	0	0.30591724	0	0	-1.05535299	0.00000000
40.96000000	-12.04533814	4.55703398	1.29503661	-0.00036618	0	-0.00054621	-60.81865507	683.29885237	-87.63707525	1.09900358	0	-0.35268969	0	0.00998532	0	0	-1.06632639	0
40.97000000	-10.20966107	0.06250278	0.24207988	-0.02618758	0	0.02293609	-57.85021441	694.22645976	-86.50059287	1.09328019	0	-0.35190663	0	-0.07262188	0	0	-1.10898776	0.00000000
40.98000000	-8.98245563	-1.02810784	0.03398579	-0.02102862	0	0.01864630	-54.11365361	697.86056419	-85.48177948	1.08751408	0	-0.35102651	0	-0.06121649	0	0	-1.20229620	0
40.99000000	-8.45950594	-0.73786260	-0.06221190	-0.01005730	0	0.00899300	-49.99645699	696.12056056	-84.72747041	1.08182681	0	-0.35012617	0	-0.03023064	0	0	-1.33570836	0
41	-8.37632759	-0.16405841	0.03812129	-0.00256740	0	0.00233711	-45.86764954	690.67153244	-84.09008189	1.07612405	0	-0.34922142	0	-0.00824258	0	0	-1.50936757	0
41.01000000	-8.45498051	0.21876948	0.07037804	0.00058123	0	-0.00048633	-41.82245314	682.40491924	-83.41591375	1.07028573	0	-0.34832064	0	0.00132328	0	0	-1.68500802	-0.00000000
41.02000000	-8.54161202	0.28318763	0.03605852	0.00114595	0	-0.00100866	-37.83173723	671.58559513	-82.60147612	1.06431736	0	-0.34745666	0	0.00324122	0	0	-1.82675327	0
41.03000000	-8.58854223	0.15803534	0.07832276	0.00077114	0	-0.00068542	-33.96104828	658.20811019	-81.37743731	1.05822945	0	-0.34662886	0	0.00226567	0	0	-1.97133086	0
41.04000000	-8.58761912	0.00279291	0.06027396	0.00031986	0	-0.00028691	-30.18647181	642.79330772	-79.67439526	1.05207186	0	-0.34581972	0	0.00097291	0	0	-2.08375784	0
41.05000000	-8.57216772	-0.06178794	0.06551757	0.00005466	0	-0.00005069	-26.43187876	626.67245577	-77.63493270	1.04591546	0	-0.34504223	0	0.00018733	0	0	-2.09266085	0
41.06000000	-8.57085228	-0.01445222	0.04387462	-0.00004026	0	0.00003477	-22.53529361	611.42337447	-75.23080725	1.03954926	0	-0.34435515	0	-0.00010546	0	0	-2.03203067	0
41.07000000	-8.59923124	0.07226523	0.04451954	-0.00004689	0	0.00004142	-18.51353060	598.31406295	-72.56604629	1.03309873	0	-0.34379794	0	-0.00013448	0	0	-1.91394658	0
41.08000000	-8.60873109	0.16415737	0.05224445	-0.00002721	0	0.00002424	-14.63182234	587.77300839	-69.90130285	1.02668809	0	-0.34334196	0	-0.00008067	0	0	-1.71144434	0.00000000
41.09000000	-8.58904754	0.22221977	0.03483140	-0.00000958	0	0.00000863	-11.02055215	579.91916623	-67.51768321	1.02029933	0	-0.34293250	0	-0.00002961	0	0	-1.50082855	-0.00000000
41.10000000	-8.55878858	0.19482923	0.04036515	-0.00000055	0	0.00000057	-7.54809166	574.93420290	-65.74312831	1.01389546	0	-0.34253481	0	-0.00000261	0	0	-1.30627861	0
41.11000000	-8.56387708	0.10236212	0.05926915	0.00000208	0	-0.00000182	-3.97778500	572.99525775	-64.75469118	1.00737230	0	-0.34212163	0	0.00000570	0	0	-1.13208914	0
41.12000000	-8.59785159	0.06985463	0.09692684	0.00000183	0	-0.00000162	-0.28122005	574.12390585	-64.56035953	1.00066316	0	-0.34175205	0	0.00000530	0	0	-1.00790689	0
41.13000000	-8.61961285	0.14686664	0.10597625	0.00000093	0	-0.00000083	3.43857687	578.32864886	-65.08155001	0.99376996	0	-0.34149418	0	0.00000279	0	0	-0.89229087	-0.00000000
41.14000000	-8.63590938	0.26188271	0.09817966	0.00000026	0	-0.00000023	7.12527560	585.66131785	-66.16762804	0.98674194	0	-0.34133707	0	0.00000087	0	0	-0.76026689	-0.00000000
41.15000000	-8.63728843	0.36681093	0.06844910	-0.00000007	0	0.00000005	10.80710070	595.92604414	-67.66279729	0.97945139	0	-0.34127334	0	-0.00000005	0	0	-0.63872968	0
41.16000000	-8.63027057	0.40610553	0.01291029	-0.00000018	0	0.00000013	14.51037442	608.57166781	-69.41057239	0.97200277	0	-0.34135727	0	-0.00000037	0	0	-0.52624704	0
41.17000000	-8.62691256	0.36065651	-0.06456793	-0.00000018	0	0.00000013	18.16173143	622.86263272	-71.19091529	0.96455032	0	-0.34162596	0	-0.00000055	0	0	-0.39663713	0.00000000
41.18000000	-8.62960470	0.23668254	-0.15070062	-0.00000007	0	0.00000005	21.71537602	638.31194712	-72.77384432	0.95709247	0	-0.34199349	0	-0.00000077	0	0	-0.25517641	0
41.19000000	-8.63915076	0.12217304	-0.22751447	0.00000030	0	-0.00000019	25.29678928	654.38336380	-74.08354461	0.94970291	0	-0.34237229	0	-0.00000077	0	0	-0.12662818	0
41.20000000	-8.66861797	0.09808334	-0.28381263	0.00000111	0	-0.00000067	29.12567108	670.16857646	-75.11245159	0.94244942	0	-0.34274866	0	0.00000029	0	0	-0.03032234	-0.00000000
41.21000000	-8.69246420	0.14840855	-0.34283300	0.00000222	0	-0.00000131	33.11244946	684.78109610	-75.92041477	0.93524585	0	-0.34312823	0	0.00000374	0	0	0.09807229	0
41.22000000	-8.69393701	0.18815145	-0.44560873	0.00000258	0	-0.00000145	37.01695617	697.39341344	-76.57879016	0.92810033	0	-0.34350356	0	0.00001033	0	0	0.29206861	0
41.23000000	-8.70876913	0.17095714	-0.55429219	-0.00000052	0	0.00000050	40.77385569	707.13115337	-77.12960078	0.92117309	0	-0.34384831	0	0.00001744	0	0	0.48481669	-0.00000000
41.24000000	-8.77726290	0.12141869	-0.60435640	-0.00001136	0	0.00000703	44.48756430	713.48646268	-77.61043443	0.91444253	0	-0.34416502	0	0.00001422	0	0	0.67374917	0.00000000
41.25000000	-8.86488018	0.08166991	-0.65710097	-0.00003278	0	0.00001960	48.37941931	716.66466190	-78.06105759	0.90790966	0	-0.34444434	0	-0.00002265	0	0	0.85970416	0.00000000
